<?xml version="1.0" standalone="no"?>
<!DOCTYPE svg PUBLIC "-//W3C//DTD SVG 20010904//EN"
 "http://www.w3.org/TR/2001/REC-SVG-20010904/DTD/svg10.dtd">
<svg version="1.0" xmlns="http://www.w3.org/2000/svg"
 width="1280.000000pt" height="1280.000000pt" viewBox="0 0 1280.000000 1280.000000"
 preserveAspectRatio="xMidYMid meet">
<metadata>
Created by potrace 1.14, written by Peter Selinger 2001-2017
</metadata>
<g transform="translate(0.000000,1280.000000) scale(0.100000,-0.100000)"
fill="#000000" stroke="none">
<path d="M8705 10720 c-2 -3 -24 -5 -49 -4 -26 1 -48 -2 -51 -6 -3 -4 -18 -6
-35 -5 -16 1 -30 -1 -30 -5 0 -5 -8 -7 -17 -6 -10 2 -31 -1 -48 -6 -32 -10
-54 -15 -83 -22 -58 -13 -109 -29 -119 -38 -7 -6 -13 -8 -13 -4 0 4 -13 0 -30
-9 -16 -9 -30 -13 -30 -10 0 3 -12 -3 -27 -12 -15 -10 -28 -17 -30 -15 -4 3
-156 -69 -163 -77 -3 -3 -26 -17 -52 -30 -27 -13 -48 -28 -48 -33 0 -5 -4 -6
-10 -3 -5 3 -10 2 -10 -3 0 -5 -13 -15 -30 -22 -16 -7 -30 -16 -30 -21 0 -5
-5 -9 -10 -9 -11 0 -28 -13 -60 -44 -11 -11 -20 -17 -20 -14 0 15 -200 -177
-267 -257 -23 -28 -52 -63 -64 -80 -13 -16 -28 -33 -34 -37 -5 -4 -6 -8 -1 -8
5 0 0 -10 -11 -22 -11 -13 -30 -41 -43 -63 -13 -22 -27 -42 -30 -45 -3 -3 -19
-32 -35 -65 -17 -33 -34 -63 -40 -67 -5 -4 -7 -8 -3 -8 3 0 -7 -28 -24 -62
-17 -35 -31 -67 -33 -73 -2 -12 -14 -43 -25 -70 -12 -27 -57 -188 -67 -240
-21 -105 -31 -231 -29 -342 2 -120 1 -132 -15 -136 -16 -4 -17 -2 -8 15 8 15
8 19 0 14 -10 -6 -16 13 -12 37 0 4 -3 7 -9 7 -6 0 -9 3 -8 8 1 4 -6 22 -15
40 -10 17 -14 32 -10 32 5 0 3 4 -3 8 -6 4 -18 27 -26 52 -9 25 -20 44 -26 43
-6 -2 -9 3 -6 11 3 7 -9 43 -25 78 -17 36 -31 70 -31 77 0 7 -4 10 -9 6 -6 -3
-8 4 -6 15 2 11 -1 20 -6 20 -6 0 -7 5 -4 10 3 6 1 10 -5 10 -6 0 -8 5 -5 10
3 6 0 13 -9 16 -8 3 -12 12 -10 19 3 7 0 16 -5 20 -6 3 -9 11 -6 16 4 5 2 9
-4 9 -6 0 -8 7 -5 15 4 10 0 15 -12 16 -11 0 -14 3 -7 6 13 5 4 27 -27 67 -13
17 -13 18 0 11 12 -7 13 -6 3 7 -7 8 -10 18 -6 21 3 4 1 7 -5 7 -7 0 -12 9
-12 19 0 11 -5 23 -11 26 -6 4 -8 13 -5 21 3 8 0 11 -9 8 -9 -4 -13 1 -11 12
3 21 -17 63 -36 75 -10 7 -10 9 0 9 9 0 8 6 -4 25 -8 13 -13 29 -9 35 3 5 1
10 -5 10 -6 0 -8 5 -5 10 3 6 0 10 -9 10 -8 0 -13 7 -11 18 1 9 -1 22 -5 27
-5 6 -8 14 -8 20 0 5 -5 11 -11 13 -6 2 -8 -3 -5 -12 4 -10 0 -18 -10 -22 -9
-3 -16 -10 -16 -16 0 -5 4 -6 10 -3 6 4 7 -1 3 -11 -5 -13 -3 -15 7 -9 9 5 11
4 6 -4 -4 -6 -11 -9 -16 -6 -5 3 -19 1 -31 -6 -17 -9 -20 -8 -17 3 3 7 11 13
18 13 18 0 20 45 3 52 -12 5 -12 7 -1 14 11 7 11 9 -1 9 -8 0 -20 -8 -28 -17
-11 -14 -13 -15 -12 -3 1 8 -1 23 -6 34 -5 12 -3 21 6 27 20 12 26 11 26 -6 0
-9 -6 -14 -14 -11 -8 3 -11 2 -8 -3 3 -6 14 -9 24 -8 14 1 18 8 16 29 -1 15 1
25 6 23 4 -3 6 -15 4 -26 -3 -16 0 -19 13 -15 15 5 15 4 2 -7 -21 -17 -22 -34
-4 -41 8 -3 14 0 13 7 -3 27 1 38 13 31 7 -5 3 5 -10 20 -12 16 -19 32 -17 36
3 5 1 11 -5 15 -6 4 -7 11 -4 17 5 7 2 8 -6 3 -9 -6 -12 -4 -8 6 3 8 0 23 -8
33 -7 11 -11 23 -8 27 3 5 -2 9 -11 9 -9 0 -14 3 -12 8 3 4 -1 13 -9 20 -18
17 -18 1 0 -24 13 -17 12 -23 -6 -51 -11 -18 -15 -33 -9 -33 6 0 11 8 11 17 0
9 3 13 7 10 3 -4 12 -2 19 4 10 8 12 6 11 -10 -1 -14 -6 -20 -15 -16 -11 4
-10 -1 3 -21 16 -25 16 -27 1 -21 -9 4 -14 3 -11 -2 3 -5 -4 -13 -15 -16 -19
-6 -20 -9 -8 -28 8 -12 13 -32 12 -44 -1 -15 3 -20 14 -15 10 3 13 1 8 -6 -4
-7 -16 -12 -27 -12 -16 0 -19 5 -14 23 3 12 3 18 -2 12 -4 -5 -15 -10 -23 -10
-8 0 -14 -8 -14 -17 1 -10 -2 -18 -8 -18 -5 0 -6 -4 -3 -10 3 -5 1 -10 -4 -10
-6 0 -10 -3 -9 -7 1 -5 -5 -21 -12 -38 -7 -16 -13 -33 -12 -37 1 -5 -2 -8 -7
-8 -5 0 -11 -13 -14 -30 -5 -23 -11 -28 -24 -24 -12 4 -14 3 -6 -3 18 -13 16
-18 -54 -171 -18 -40 -33 -79 -33 -87 0 -8 -5 -15 -10 -15 -6 0 -9 -3 -8 -7 3
-14 -14 -63 -21 -63 -4 0 -8 -6 -8 -12 0 -7 -8 -30 -17 -50 -10 -20 -19 -43
-20 -51 -1 -8 -8 -22 -15 -30 -7 -9 -14 -22 -15 -29 -2 -12 -25 -64 -67 -152
-11 -22 -19 -44 -19 -49 0 -4 -11 -33 -25 -63 -14 -30 -25 -59 -25 -63 0 -5
-7 -22 -15 -38 -30 -59 -58 -127 -58 -140 0 -7 -4 -13 -8 -13 -3 0 -17 -26
-30 -57 -12 -32 -35 -86 -51 -121 -15 -34 -28 -66 -28 -70 0 -5 -11 -32 -25
-60 -14 -29 -25 -59 -25 -67 0 -8 -4 -15 -10 -15 -5 0 -9 -3 -8 -7 1 -5 -3
-18 -10 -30 -7 -13 -10 -23 -6 -23 4 0 -1 -9 -11 -20 -10 -11 -15 -20 -11 -20
3 0 -1 -11 -10 -25 -9 -14 -12 -25 -8 -25 5 0 4 -4 -1 -8 -6 -4 -18 -25 -27
-47 -9 -22 -32 -80 -52 -130 -20 -49 -43 -102 -51 -117 -8 -14 -15 -33 -15
-41 0 -8 -7 -20 -15 -27 -9 -7 -13 -15 -11 -18 3 -3 -1 -17 -8 -31 -15 -29
-32 -66 -71 -156 -14 -33 -30 -68 -35 -77 -6 -10 -10 -22 -10 -28 0 -5 -16
-44 -35 -86 -19 -41 -35 -77 -35 -79 0 -2 -5 -16 -12 -32 -6 -15 -12 -30 -13
-33 0 -3 -13 -30 -27 -60 -28 -57 -96 -217 -131 -307 -11 -29 -24 -53 -28 -53
-5 0 -9 -8 -9 -18 0 -10 -7 -28 -16 -40 -8 -12 -13 -22 -9 -22 3 0 -1 -10 -9
-22 -8 -13 -15 -25 -14 -28 0 -3 -14 -36 -31 -74 -17 -38 -31 -73 -31 -78 0
-5 -13 -38 -29 -71 -15 -34 -31 -72 -35 -85 -4 -12 -12 -22 -18 -22 -6 0 -8
-3 -5 -7 4 -3 0 -17 -8 -30 -9 -13 -13 -23 -9 -23 3 0 -6 -20 -20 -45 -15 -25
-24 -45 -20 -45 3 0 2 -6 -4 -12 -5 -7 -23 -47 -40 -88 -16 -41 -47 -111 -68
-155 -21 -44 -38 -82 -39 -85 -2 -17 -29 -70 -35 -70 -5 0 -7 -8 -5 -17 1 -10
-11 -44 -26 -75 -16 -32 -29 -60 -29 -63 0 -3 -10 -26 -23 -53 -13 -26 -43
-95 -66 -154 -24 -60 -46 -108 -50 -108 -4 0 -7 -10 -8 -22 -1 -11 -7 -24 -13
-28 -6 -4 -10 -11 -9 -16 1 -5 -10 -35 -24 -67 -15 -32 -27 -60 -27 -62 0 -2
-13 -33 -29 -67 -15 -35 -40 -94 -55 -133 -15 -38 -38 -91 -51 -116 -14 -25
-22 -49 -18 -53 3 -3 1 -6 -5 -6 -7 0 -11 -3 -10 -7 1 -5 -8 -30 -21 -58 -12
-27 -38 -88 -58 -135 -19 -47 -47 -112 -62 -145 -15 -33 -36 -82 -46 -110 -10
-27 -25 -59 -32 -71 -7 -11 -11 -23 -8 -26 3 -3 -1 -11 -10 -18 -8 -7 -15 -16
-15 -21 0 -5 -11 -32 -24 -61 -13 -29 -39 -89 -56 -133 -18 -44 -37 -91 -43
-105 -5 -14 -10 -28 -9 -32 1 -5 -3 -8 -9 -8 -5 0 -8 -4 -5 -8 3 -5 -4 -23
-15 -41 -19 -31 -29 -54 -108 -246 -59 -141 -65 -155 -73 -155 -3 0 -4 -9 -1
-20 3 -12 0 -20 -8 -20 -7 0 -10 -3 -6 -6 3 -4 0 -19 -9 -35 -8 -16 -14 -32
-13 -35 0 -4 -5 -10 -12 -15 -7 -4 -14 -18 -16 -30 -2 -13 -7 -26 -11 -29 -5
-3 -23 -45 -41 -95 -18 -49 -41 -101 -49 -115 -9 -14 -17 -27 -17 -30 -1 -18
-51 -136 -59 -142 -6 -4 -7 -8 -2 -8 5 0 1 -9 -9 -20 -10 -11 -15 -20 -11 -20
4 0 0 -12 -8 -28 -24 -42 -86 -192 -86 -208 0 -8 -4 -14 -10 -14 -5 0 -10 -9
-10 -20 0 -11 -5 -20 -11 -20 -5 0 -8 -4 -5 -9 3 -5 -5 -28 -17 -52 -13 -24
-29 -60 -37 -79 -8 -19 -17 -37 -20 -40 -4 -3 -23 -45 -43 -95 -88 -217 -107
-260 -116 -263 -5 -2 -8 -9 -5 -16 3 -8 -2 -21 -11 -30 -9 -9 -13 -16 -9 -16
3 0 1 -7 -6 -15 -7 -8 -9 -15 -6 -15 4 0 -1 -13 -10 -30 -10 -16 -15 -32 -12
-36 4 -3 162 -6 352 -7 190 0 346 -4 346 -8 0 -4 21 -5 47 -2 74 8 3987 12
3998 4 12 -9 176 -8 190 1 6 3 479 6 1053 6 574 0 1045 2 1048 5 3 2 -11 45
-31 93 -20 49 -38 94 -39 99 -2 6 -11 28 -21 50 -18 39 -22 50 -28 79 -2 8 -9
21 -16 30 -7 9 -10 16 -5 16 5 0 4 4 -2 8 -6 4 -21 34 -33 67 -12 33 -26 64
-30 70 -5 5 -16 33 -26 60 -10 28 -22 55 -25 60 -4 6 -13 28 -20 50 -7 22 -19
47 -26 56 -8 9 -11 19 -7 22 3 4 1 7 -5 7 -7 0 -11 3 -10 8 1 4 -3 17 -10 28
-6 12 -9 24 -6 26 2 3 -2 11 -11 18 -8 7 -15 19 -15 26 0 7 -11 37 -24 66 -13
29 -43 103 -66 163 -24 61 -47 116 -53 123 -5 6 -6 12 -3 12 4 0 0 7 -8 16 -9
8 -16 24 -16 35 0 10 -5 19 -11 19 -6 0 -9 7 -5 15 3 8 2 15 -2 15 -4 0 -15
17 -24 38 -9 20 -30 66 -46 102 -16 36 -33 76 -37 90 -4 14 -19 48 -33 75 -14
28 -27 53 -28 58 -1 4 -2 8 -4 10 -1 1 -3 11 -5 21 -2 10 -7 22 -12 25 -4 3
-9 12 -11 20 -2 8 -16 41 -31 75 -16 34 -48 111 -71 171 -24 61 -50 118 -58
128 -8 9 -12 17 -8 17 4 0 1 10 -6 23 -7 12 -13 24 -14 27 -9 32 -28 70 -36
70 -6 0 -8 7 -4 15 3 8 1 15 -4 15 -6 0 -9 3 -8 8 1 4 -3 17 -10 30 -7 12 -10
22 -6 22 4 0 0 8 -8 18 -9 9 -30 55 -48 102 -17 47 -35 90 -40 95 -4 6 -16 35
-28 65 -11 30 -36 89 -55 130 -20 41 -52 116 -72 165 -20 50 -45 108 -56 131
-10 22 -19 43 -19 47 0 14 -44 102 -54 109 -6 4 -7 10 -3 14 4 4 0 16 -10 26
-9 10 -13 18 -8 18 4 0 3 6 -3 13 -9 11 -79 175 -133 312 -13 33 -27 63 -32
66 -4 3 -9 15 -12 27 -2 12 -7 28 -12 35 -4 6 -8 14 -9 17 0 3 -9 23 -18 45
-10 22 -40 94 -68 160 -94 226 -118 276 -133 287 -6 5 -4 8 5 8 10 0 11 3 4 8
-6 4 -15 22 -19 40 -4 18 -13 36 -21 39 -13 5 -12 9 2 32 12 17 13 22 3 15
-11 -9 -17 -9 -27 2 -7 8 -10 14 -6 14 3 0 2 6 -5 13 -8 10 -7 17 1 25 9 9 8
12 -4 12 -9 0 -20 5 -24 12 -5 8 -2 9 10 5 9 -4 15 -3 12 2 -3 5 1 14 9 21 13
11 15 9 13 -11 -2 -15 2 -23 10 -22 6 2 12 -3 12 -11 0 -8 4 -18 10 -21 6 -4
7 2 1 17 -5 13 -14 22 -21 20 -7 -1 -10 2 -8 8 2 7 6 11 8 10 34 -7 50 -14 50
-21 0 -5 5 -9 11 -9 8 0 8 4 0 14 -9 11 -9 20 -2 35 15 27 14 34 -4 28 -8 -4
-17 -2 -20 3 -4 6 -14 6 -27 -1 -16 -9 -18 -13 -7 -20 7 -4 18 -4 25 1 11 10
24 4 24 -11 0 -7 -23 -6 -68 5 -15 3 -20 1 -16 -6 5 -7 2 -8 -6 -3 -9 6 -11 4
-5 -6 5 -10 5 -11 -3 -4 -6 6 -12 17 -14 25 -2 8 -10 21 -18 28 -13 11 -11 11
8 2 12 -6 20 -15 17 -21 -4 -5 -1 -9 4 -9 6 0 11 6 11 13 0 8 4 7 10 -3 5 -8
10 -13 11 -10 0 3 3 14 5 25 3 11 5 28 5 37 0 10 4 20 8 23 5 2 7 -8 5 -23 -3
-23 1 -27 21 -28 30 -2 31 4 8 23 -10 8 -13 12 -6 9 6 -4 15 -2 18 4 4 6 1 9
-5 8 -11 -3 -14 3 -23 49 -2 9 -9 19 -15 21 -7 2 -12 12 -12 23 0 10 -4 19
-10 19 -5 0 -9 3 -9 8 4 21 -2 32 -13 26 -8 -5 -7 0 2 11 12 15 12 17 1 10
-11 -6 -13 -4 -8 9 5 11 3 15 -5 10 -7 -5 -9 0 -6 14 4 15 0 22 -15 26 -17 4
-19 8 -10 17 9 9 8 15 -3 26 -8 8 -11 20 -7 26 4 7 -1 6 -10 -2 -9 -7 -14 -18
-10 -24 3 -6 1 -7 -6 -3 -9 6 -9 11 -1 21 7 8 8 20 4 26 -4 7 -3 9 3 6 5 -3
10 1 10 9 0 8 -6 13 -14 10 -8 -3 -13 0 -12 7 3 25 -2 37 -23 57 -21 19 -21
21 -3 14 18 -6 18 -5 -2 15 -27 25 -31 40 -6 20 15 -13 15 -12 2 8 -7 12 -15
20 -18 18 -2 -3 -11 4 -18 15 -8 11 -20 17 -26 14 -7 -4 -8 -3 -4 2 5 5 13 10
18 10 5 1 12 2 16 3 4 0 -2 8 -13 17 -10 8 -12 13 -4 9 10 -4 9 -2 -2 8 -10 7
-19 28 -20 45 -1 18 -6 32 -10 32 -4 0 -8 5 -8 11 0 6 -10 19 -22 28 -16 14
-18 20 -8 26 8 5 11 4 6 -3 -3 -6 -2 -13 3 -16 16 -11 5 26 -12 39 -9 7 -14
15 -11 18 3 3 -5 30 -19 61 -14 30 -23 57 -19 60 3 3 0 6 -7 6 -7 0 -9 5 -6
10 6 9 -7 14 -27 11 -4 0 -5 6 -2 14 4 8 11 12 18 9 6 -3 1 3 -12 13 -18 15
-20 21 -10 32 7 8 8 11 2 8 -7 -4 -14 3 -18 18 -4 14 -11 25 -16 25 -6 0 -10
5 -10 11 0 5 6 7 13 3 6 -4 4 2 -6 13 -9 11 -15 22 -12 25 3 2 -2 5 -10 5 -11
0 -12 -4 -4 -14 7 -8 8 -13 1 -13 -5 0 -13 8 -17 18 -7 16 -8 15 -16 -3 -8
-18 -9 -19 -6 -1 1 11 10 20 20 22 35 5 32 16 -3 12 -23 -2 -34 -8 -32 -16 1
-8 -2 -11 -8 -7 -6 3 -7 12 -3 18 11 18 12 67 1 67 -6 0 -8 -7 -5 -15 4 -8 1
-17 -5 -21 -7 -4 -8 -3 -4 4 4 7 4 12 -1 13 -4 0 -17 2 -28 4 -19 3 -19 3 -2
-9 9 -7 17 -17 17 -21 0 -4 -7 -2 -15 5 -8 6 -19 9 -24 5 -7 -4 -8 0 -4 10 3
10 0 21 -7 25 -7 4 -9 13 -6 19 4 6 12 9 17 5 5 -3 7 -10 4 -15 -4 -5 -3 -9 2
-10 4 0 16 -2 26 -4 9 -2 15 1 11 6 -3 5 2 9 10 9 20 0 29 17 15 26 -7 4 -10
3 -6 -2 3 -5 -6 -14 -19 -21 -23 -11 -35 -1 -14 12 6 4 8 10 5 15 -3 5 0 10 7
13 8 2 7 3 -2 3 -8 -1 -15 -6 -15 -13 0 -6 -3 -15 -7 -19 -5 -4 -8 -2 -8 5 0
8 -8 11 -19 8 -10 -2 -25 0 -32 5 -11 8 -10 9 3 4 10 -3 20 -1 23 5 4 5 10 7
15 4 5 -3 12 0 16 6 4 8 3 9 -4 5 -7 -4 -12 -3 -12 2 0 6 -7 13 -16 16 -14 5
-15 4 -4 -9 10 -12 10 -15 -3 -15 -8 0 -17 9 -20 20 -3 11 0 20 6 20 7 0 5 5
-3 10 -12 8 -12 10 5 11 11 0 14 3 8 6 -21 8 -15 44 12 79 25 33 27 33 50 18
14 -9 25 -21 25 -28 0 -6 -5 -4 -11 4 -9 13 -10 13 -6 -1 3 -9 1 -21 -4 -26
-5 -5 -1 -9 10 -9 10 0 17 6 14 12 -2 7 0 15 6 19 6 3 11 -1 11 -9 0 -9 3 -16
8 -16 4 0 34 -26 68 -58 33 -31 74 -67 90 -79 111 -84 139 -103 156 -108 10
-4 18 -11 18 -16 0 -5 7 -9 15 -9 8 0 15 -4 15 -10 0 -5 5 -10 11 -10 7 0 33
-13 59 -29 27 -16 51 -27 54 -24 3 4 6 1 6 -6 0 -7 5 -9 10 -6 6 3 10 1 10 -4
0 -6 6 -11 13 -11 7 0 36 -11 64 -25 28 -13 64 -27 80 -31 15 -4 30 -11 33
-15 3 -4 17 -9 30 -11 14 -2 30 -7 36 -10 6 -4 24 -10 40 -12 16 -3 44 -10 62
-15 18 -5 33 -10 35 -9 1 0 20 -5 42 -10 52 -14 127 -24 191 -27 29 -1 56 -5
61 -8 21 -13 354 8 453 29 14 3 34 7 45 9 52 10 79 17 94 24 9 4 23 7 31 6 8
-1 21 3 28 8 6 5 12 6 12 2 0 -4 11 0 25 9 14 9 25 14 25 12 0 -6 105 33 175
65 28 13 53 22 58 21 4 -1 7 2 7 6 0 5 20 17 45 28 25 10 45 22 45 27 0 4 5 5
10 2 6 -3 10 -1 10 4 0 6 7 11 15 11 8 0 15 4 15 10 0 5 3 9 8 8 10 -2 72 35
72 45 0 4 7 7 15 7 8 0 15 4 15 8 0 4 13 16 30 25 16 10 35 23 42 30 7 7 38
32 68 57 56 46 178 167 217 217 13 15 35 44 50 63 16 19 31 37 36 38 4 2 7 10
7 18 0 8 5 14 10 14 6 0 10 6 10 13 0 7 9 23 20 35 11 12 20 23 20 26 0 2 17
33 38 67 79 133 192 408 192 469 0 15 4 40 10 56 27 82 56 509 37 540 -3 5 -8
47 -12 94 -4 46 -12 96 -17 110 -5 14 -9 26 -8 28 5 9 -14 123 -24 152 -8 19
-26 69 -41 110 -38 101 -110 255 -146 308 -16 24 -29 47 -29 53 0 5 -5 9 -11
9 -5 0 -8 4 -5 8 3 5 -6 19 -19 30 -14 12 -25 28 -25 36 0 8 -3 16 -7 18 -5 2
-24 23 -43 48 -19 25 -42 54 -50 64 -25 32 -153 159 -197 196 -23 19 -53 44
-66 55 -13 12 -57 43 -98 70 -41 28 -76 53 -79 56 -3 4 -15 9 -27 13 -13 4
-23 12 -23 17 0 6 -4 8 -9 4 -5 -3 -12 -1 -16 5 -9 15 -181 95 -197 92 -5 -1
-8 3 -8 9 0 5 -4 7 -10 4 -5 -3 -10 -2 -10 3 0 5 -6 9 -12 9 -21 1 -43 7 -48
15 -3 4 -17 9 -30 11 -14 3 -36 10 -50 15 -14 5 -28 10 -32 11 -4 1 -13 4 -20
6 -7 2 -24 6 -38 8 -14 2 -32 7 -40 10 -16 6 -64 16 -115 22 -16 3 -50 7 -75
10 -62 9 -400 13 -405 5z m-2254 -773 c-10 -9 -11 -8 -5 6 3 10 9 15 12 12 3
-3 0 -11 -7 -18z m38 -51 c11 -14 6 -15 -27 -7 -4 1 8 21 12 21 2 0 9 -6 15
-14z m-3 -136 c0 -10 -4 -18 -9 -17 -12 3 -33 -30 -25 -38 3 -4 16 -1 28 5 17
9 21 9 15 0 -5 -9 -1 -10 14 -5 13 4 21 2 21 -5 0 -6 -4 -9 -8 -6 -4 2 -13 -4
-20 -14 -7 -12 -8 -21 -2 -25 6 -3 10 -2 10 4 0 6 7 7 17 4 10 -4 14 -2 9 5
-3 6 -2 13 3 16 5 4 8 -2 7 -11 -2 -9 -9 -19 -17 -21 -23 -8 -39 -24 -33 -34
3 -5 12 -1 21 9 13 16 13 16 3 -6 -10 -19 -9 -25 1 -32 23 -15 -4 -9 -31 6
-14 8 -19 14 -11 15 11 0 10 4 -4 13 -10 8 -15 19 -11 25 4 7 2 12 -4 12 -6 0
-8 5 -5 10 3 6 11 10 16 10 6 0 8 -4 4 -9 -3 -5 -1 -12 4 -16 6 -3 8 4 6 15
-3 13 0 18 7 14 7 -4 8 -3 4 4 -5 8 -13 9 -24 3 -20 -10 -45 -3 -36 10 3 5 1
9 -4 9 -20 0 -7 29 15 35 18 4 23 10 18 25 -5 14 -2 18 7 15 8 -3 14 -14 14
-25z m64 6 c0 -3 -4 -8 -10 -11 -5 -3 -10 -1 -10 4 0 6 5 11 10 11 6 0 10 -2
10 -4z m-9 -159 c-10 -9 -11 -8 -5 6 3 10 9 15 12 12 3 -3 0 -11 -7 -18z m2
-82 c-7 -21 -12 -19 -10 4 0 11 5 18 9 15 4 -3 5 -11 1 -19z m978 -2252 c13
-16 12 -17 -3 -4 -10 7 -18 15 -18 17 0 8 8 3 21 -13z m54 -33 c-3 -5 -12 -10
-18 -10 -7 0 -6 4 3 10 19 12 23 12 15 0z m29 -6 c3 -8 2 -12 -4 -9 -6 3 -10
10 -10 16 0 14 7 11 14 -7z m26 -18 c0 -2 -6 -9 -14 -15 -11 -9 -16 -9 -22 0
-4 7 -3 9 4 5 6 -3 13 -2 17 4 6 10 15 14 15 6z m-20 -54 c0 -5 -7 -9 -15 -9
-8 0 -12 4 -9 9 3 4 9 8 15 8 5 0 9 -4 9 -8z m400 -974 c0 -5 -4 -8 -10 -8 -5
0 -10 5 -10 11 0 5 -4 8 -8 5 -5 -3 -9 1 -9 8 0 11 4 12 19 3 10 -7 18 -15 18
-19z"/>
<path d="M6470 9638 c0 -4 4 -8 9 -8 6 0 12 4 15 8 3 5 -1 9 -9 9 -8 0 -15 -4
-15 -9z"/>
<path d="M6390 10086 c0 -2 7 -7 16 -10 8 -3 12 -2 9 4 -6 10 -25 14 -25 6z"/>
<path d="M6391 10027 c-8 -10 -7 -14 2 -14 8 0 14 6 14 14 0 7 -1 13 -2 13 -2
0 -8 -6 -14 -13z"/>
<path d="M6352 9980 c2 -9 -3 -14 -12 -12 -8 2 -11 0 -7 -4 4 -4 14 -9 21 -10
14 -2 16 20 2 33 -4 4 -6 1 -4 -7z"/>
<path d="M6388 9972 c4 -11 7 -12 10 -4 2 7 8 12 13 12 5 0 3 -11 -3 -25 -6
-14 -15 -25 -20 -25 -5 0 -6 5 -2 12 4 7 3 8 -5 4 -12 -8 -6 -26 9 -26 9 0 44
58 38 61 -2 1 -13 3 -25 4 -16 2 -20 -2 -15 -13z"/>
<path d="M6365 9900 c-16 -7 -17 -9 -3 -9 9 -1 20 4 23 9 7 11 7 11 -20 0z"/>
<path d="M6387 9880 c-11 -13 -10 -13 6 -1 10 8 17 9 17 3 0 -6 -4 -14 -10
-17 -5 -3 -10 -11 -10 -16 0 -6 11 2 25 17 14 15 25 28 25 28 0 9 -44 -2 -53
-14z"/>
<path d="M6335 9860 c-3 -5 -1 -10 4 -10 6 0 11 5 11 10 0 6 -2 10 -4 10 -3 0
-8 -4 -11 -10z"/>
<path d="M6355 9831 c-3 -5 -2 -12 3 -15 5 -3 9 1 9 9 0 17 -3 19 -12 6z"/>
<path d="M6335 9800 c-4 -6 -1 -9 7 -8 7 2 12 -3 10 -10 -1 -8 2 -11 8 -7 8 5
7 11 -1 21 -14 17 -16 17 -24 4z"/>
<path d="M6395 9800 c-3 -6 1 -7 9 -4 18 7 21 14 7 14 -6 0 -13 -4 -16 -10z"/>
<path d="M6335 9740 c-3 -5 -1 -10 4 -10 6 0 11 5 11 10 0 6 -2 10 -4 10 -3 0
-8 -4 -11 -10z"/>
<path d="M7450 7540 c0 -5 5 -10 11 -10 5 0 7 5 4 10 -3 6 -8 10 -11 10 -2 0
-4 -4 -4 -10z"/>
<path d="M7475 7471 c-3 -5 -2 -12 3 -15 5 -3 9 1 9 9 0 17 -3 19 -12 6z"/>
<path d="M7556 7332 c-3 -4 4 -9 15 -9 23 -2 25 3 4 10 -8 4 -16 3 -19 -1z"/>
<path d="M7846 6728 c3 -5 10 -6 15 -3 13 9 11 12 -6 12 -8 0 -12 -4 -9 -9z"/>
<path d="M8136 6073 c-6 -14 -5 -15 5 -6 7 7 10 15 7 18 -3 3 -9 -2 -12 -12z"/>
<path d="M8030 6061 c0 -6 4 -13 10 -16 6 -3 7 1 4 9 -7 18 -14 21 -14 7z"/>
</g>
</svg>
